<?xml version="1.0" encoding="UTF-8" standalone="no"?><!DOCTYPE svg PUBLIC "-//W3C//DTD SVG 1.1//EN" "http://www.w3.org/Graphics/SVG/1.1/DTD/svg11.dtd"><svg width="100%" height="100%" viewBox="0 0 1639 1860" version="1.1" xmlns="http://www.w3.org/2000/svg" xmlns:xlink="http://www.w3.org/1999/xlink" xml:space="preserve" xmlns:serif="http://www.serif.com/" style="fill-rule:evenodd;clip-rule:evenodd;stroke-linecap:round;stroke-linejoin:round;"><g id="___2"><path d="M738.543,1384.92l-177.734,-93.75l-53.125,103.125l337.5,46.875l-106.641,-56.25l-57.89,-125.468l-119.844,31.718m-53.125,103.125l-84.219,81.719l-103.281,337.031m300,-196.875l-43.75,228.125m415,-645.156l4.453,42.656l174.297,24.375l75,125l125,46.875l125,190.625l0,196.875m-499.297,-583.75l11.797,111.875l162.5,-87.5m-511.875,-55.156l22.344,48.438m164.531,181.718l162.5,-87.5m237.5,350l0,103.125m0,-415.625l-400,50" style="fill:none;fill-rule:nonzero;stroke:#6f6f6f;stroke-width:8.33px;"/><path d="M817.57,565.012l-35.801,307.889c-45.109,-55.929 -81.706,-145.83 -109.79,-269.702l14.32,224.354c-84.888,-30.471 -119.098,-171.249 -102.63,-422.334l-40.574,319.704l-81.149,-257.649c-15.116,89.662 -38.666,182.188 -70.648,277.579c12.172,53.383 30.153,108 53.94,163.849c-58.475,-74.705 -98.811,-153.825 -121.007,-237.361l27.924,220.654c-50.519,-31.187 -85.326,-77.251 -104.419,-138.192l-74.586,212.181c36.807,-112.714 36.807,-216.935 -0,-312.663l-157.525,54.895c66.809,-15.161 106.291,-146.22 107.381,-153.075c10.962,-68.955 247.028,-639.826 770.94,-529.414c315.209,-18.378 526.714,76.177 634.515,283.664c107.722,207.488 122.957,386.573 45.706,537.256c-9.706,-67.624 -40.733,-133.657 -93.083,-198.1c-3.898,115.598 -42.086,206.295 -114.563,272.089l-0,-133.657m-417.68,-312.544l-152.752,298.223m632.487,-105.017c-30.073,87.992 -92.128,164.367 -186.166,229.128c74.626,-96.425 100.084,-174.392 76.376,-233.901c-4.614,73.273 -38.029,114.643 -100.243,124.111c13.922,-28.96 25.697,-59.788 35.324,-92.487l-92.606,-263.019c-4.535,178.608 -24.424,305.066 -59.669,379.373l-62.055,-453.362c-5.648,191.656 -39.063,344.367 -100.243,458.135l-42.961,-221.967m357.534,100.84c19.81,-67.704 30.311,-143.443 31.505,-227.218m-1062.1,9.547c-7.717,108.199 0.438,200.527 24.465,276.982l4.176,-12.173m72.319,-70.289c-16.071,-60.146 -22.674,-122.599 -19.81,-187.359m78.762,-26.255c-17.503,91.492 -14.798,187.201 8.115,287.126" style="fill:none;fill-rule:nonzero;stroke:#6f6f6f;stroke-width:8.33px;"/><path d="M286.281,820.154c-25.819,155.2 31.94,266.283 173.278,333.249c72.118,34.184 165.996,56.878 281.635,68.082c186.606,4.233 324.162,-27.51 412.668,-95.231c88.503,-67.718 160.98,-137.809 217.432,-210.272m-801.945,38.188c13.423,38.681 50.815,37.09 112.177,-4.774c41.37,59.527 81.945,66.687 121.724,21.481" style="fill:none;fill-rule:nonzero;stroke:#6f6f6f;stroke-width:8.33px;"/><path d="M1448.98,804.521l70.289,0c25.672,7.861 31.977,48.993 18.915,123.395c-1.507,8.623 -3.277,17.693 -5.31,27.208c-13.578,63.575 -47.489,107.014 -101.735,130.317c-23.934,10.291 -51.839,16.656 -83.715,19.094c-9.587,-3.485 -17.086,-9.849 -22.495,-19.094c-2.493,-4.276 -4.542,-9.169 -6.146,-14.679c-5.744,-19.707 -5.744,-47.314 -0,-82.82c0.578,-3.584 1.215,-7.244 1.909,-10.979m97.618,-116.234l77.092,-0c5.874,22.326 8.261,42.712 7.16,61.16c-0.118,2.033 -0.277,4.042 -0.477,6.027c-3.544,34.708 -19.973,62.255 -49.286,82.641c-11.025,7.679 -23.874,14.342 -38.546,19.989c-25.251,-11.069 -30.82,-38.915 -16.708,-83.536m59.311,-86.281l-2.745,100.601l48.451,-39.441m-48.451,39.441l-1.312,49.227" style="fill:none;fill-rule:nonzero;stroke:#6f6f6f;stroke-width:8.33px;"/></g></svg>