<?xml version="1.0" encoding="UTF-8" standalone="no"?><!DOCTYPE svg PUBLIC "-//W3C//DTD SVG 1.1//EN" "http://www.w3.org/Graphics/SVG/1.1/DTD/svg11.dtd"><svg width="100%" height="100%" viewBox="0 0 4267 4267" version="1.1" xmlns="http://www.w3.org/2000/svg" xmlns:xlink="http://www.w3.org/1999/xlink" xml:space="preserve" xmlns:serif="http://www.serif.com/" style="fill-rule:evenodd;clip-rule:evenodd;stroke-linecap:round;"><g><g><path d="M759.798,2215.4c-31.578,169.021 -50.958,351.389 -58.14,547.104" style="fill:none;fill-rule:nonzero;stroke:#eee;stroke-opacity:0.18;stroke-width:20.83px;"/></g><g><path d="M701.658,2762.5c73.831,-153.63 173.554,-285.36 299.167,-395.191" style="fill:none;fill-rule:nonzero;stroke:#eee;stroke-opacity:0.18;stroke-width:20.83px;"/></g><g><path d="M1000.83,2367.31c105.412,-92.169 229.328,-168.772 371.747,-229.809" style="fill:none;fill-rule:nonzero;stroke:#eee;stroke-opacity:0.18;stroke-width:20.83px;"/></g><g><path d="M1372.57,2137.5c-86.165,200 -116.721,505.556 -91.666,916.667" style="fill:none;fill-rule:nonzero;stroke:#eee;stroke-opacity:0.18;stroke-width:20.83px;"/></g><g><path d="M1280.91,3054.17c52.656,-57.554 102.767,-115.797 150.334,-174.731" style="fill:none;fill-rule:nonzero;stroke:#eee;stroke-opacity:0.18;stroke-width:20.83px;"/></g><g><path d="M1431.24,2879.44c195.783,-242.569 348.449,-496.826 457.999,-762.769" style="fill:none;fill-rule:nonzero;stroke:#eee;stroke-opacity:0.18;stroke-width:20.83px;"/></g><g><path d="M1889.24,2116.67c-111.165,450 -13.943,756.944 291.667,920.833" style="fill:none;fill-rule:nonzero;stroke:#eee;stroke-opacity:0.18;stroke-width:20.83px;"/></g><g><path d="M2180.91,3037.5c180.555,-200 265.277,-509.722 254.166,-929.167" style="fill:none;fill-rule:nonzero;stroke:#eee;stroke-opacity:0.18;stroke-width:20.83px;"/></g><g><path d="M2435.07,2108.33c38.54,274.82 121.265,503.148 248.176,684.985" style="fill:none;fill-rule:nonzero;stroke:#eee;stroke-opacity:0.18;stroke-width:20.83px;"/></g><g><path d="M2683.25,2793.32c92.442,132.45 208.328,240.233 347.658,323.349" style="fill:none;fill-rule:nonzero;stroke:#eee;stroke-opacity:0.18;stroke-width:20.83px;"/></g><g><path d="M3030.91,3116.67c44.39,-480.556 9.668,-802.778 -104.167,-966.667" style="fill:none;fill-rule:nonzero;stroke:#eee;stroke-opacity:0.18;stroke-width:20.83px;"/></g><g><path d="M2926.74,2150c313.835,136.111 513.807,447.222 599.919,933.333" style="fill:none;fill-rule:nonzero;stroke:#eee;stroke-opacity:0.18;stroke-width:20.83px;"/></g><g><path d="M3526.66,3083.33c43.288,-94.399 80.96,-185.873 114.062,-276.481" style="fill:none;fill-rule:nonzero;stroke:#eee;stroke-opacity:0.18;stroke-width:20.83px;"/></g><g><path d="M3722.44,2548.31c25.143,-94.6 44.141,-187.638 56.888,-277.011" style="fill:none;fill-rule:nonzero;stroke:#eee;stroke-opacity:0.18;stroke-width:20.83px;"/></g><g><path d="M3798.47,2042.79c2.959,-130.785 -9.221,-253.28 -34.495,-365.97" style="fill:none;fill-rule:nonzero;stroke:#eee;stroke-opacity:0.18;stroke-width:20.83px;"/></g><g><path d="M3670.99,1407.79c-486.664,-1011.4 -2231.44,-941.603 -2720.4,7.146" style="fill:none;fill-rule:nonzero;stroke:#eee;stroke-opacity:0.18;stroke-width:20.83px;"/></g><g><path d="M1000.83,2367.31c-5.72,1168.27 397.622,1267.72 938.939,1371.2" style="fill:none;fill-rule:nonzero;stroke:#eee;stroke-opacity:0.18;stroke-width:20.83px;"/></g><g><path d="M1939.76,3738.51l186.975,36.488" style="fill:none;fill-rule:nonzero;stroke:#eee;stroke-opacity:0.18;stroke-width:20.83px;"/></g><g><path d="M2126.74,3775c148.187,-22.28 276.869,-47.041 389.049,-74.031" style="fill:none;fill-rule:nonzero;stroke:#eee;stroke-opacity:0.18;stroke-width:20.83px;"/></g><g><path d="M2515.79,3700.97c215.966,-51.96 370.771,-112.18 485.836,-178.859" style="fill:none;fill-rule:nonzero;stroke:#eee;stroke-opacity:0.18;stroke-width:20.83px;"/></g><g><path d="M3001.62,3522.11c55.774,-32.321 102.212,-66.16 141.752,-101.31" style="fill:none;fill-rule:nonzero;stroke:#eee;stroke-opacity:0.18;stroke-width:20.83px;"/></g><g><path d="M3143.38,3420.8c74.913,-66.598 125.069,-137.906 167.058,-212.53" style="fill:none;fill-rule:nonzero;stroke:#eee;stroke-opacity:0.18;stroke-width:20.83px;"/></g><g><path d="M3310.43,3208.27c18.494,-32.869 35.404,-66.38 52.148,-100.416" style="fill:none;fill-rule:nonzero;stroke:#eee;stroke-opacity:0.18;stroke-width:20.83px;"/></g><g><path d="M3362.58,3107.85l60.805,-122.285" style="fill:none;fill-rule:nonzero;stroke:#eee;stroke-opacity:0.18;stroke-width:20.83px;"/></g><g><path d="M3423.39,2985.57c16.918,-32.42 35.118,-65.166 55.718,-98.146" style="fill:none;fill-rule:nonzero;stroke:#eee;stroke-opacity:0.18;stroke-width:20.83px;"/></g><g><path d="M1431.24,2879.44l395.499,28.897" style="fill:none;fill-rule:nonzero;stroke:#eee;stroke-opacity:0.18;stroke-width:20.83px;"/></g><g><path d="M1826.74,2908.33l-412.5,208.334" style="fill:none;fill-rule:nonzero;stroke:#eee;stroke-opacity:0.18;stroke-width:20.83px;"/></g><g><path d="M2821.48,2751.12l-138.236,42.201" style="fill:none;fill-rule:nonzero;stroke:#eee;stroke-opacity:0.18;stroke-width:20.83px;"/></g><g><path d="M2683.25,2793.32l-300.299,91.675" style="fill:none;fill-rule:nonzero;stroke:#eee;stroke-opacity:0.18;stroke-width:20.83px;"/></g><g><path d="M2382.95,2884.99l400,233.334" style="fill:none;fill-rule:nonzero;stroke:#eee;stroke-opacity:0.18;stroke-width:20.83px;"/></g><g><path d="M939.239,2045.83l-179.441,169.563" style="fill:none;fill-rule:nonzero;stroke:#eee;stroke-opacity:0.18;stroke-width:20.83px;"/></g><g><path d="M759.798,2215.4l-274.726,259.604" style="fill:none;fill-rule:nonzero;stroke:#eee;stroke-opacity:0.18;stroke-width:20.83px;"/></g><g><path d="M859.952,1654.37c-217.906,265.368 -342.866,538.912 -374.88,820.634" style="fill:none;fill-rule:nonzero;stroke:#eee;stroke-opacity:0.18;stroke-width:20.83px;"/></g><g><path d="M859.952,1654.37c-232.724,12.358 -421.573,-18.264 -566.546,-91.866" style="fill:none;fill-rule:nonzero;stroke:#eee;stroke-opacity:0.18;stroke-width:20.83px;"/></g><g><path d="M950.589,1414.93c-213.822,96.34 -432.883,145.53 -657.183,147.569" style="fill:none;fill-rule:nonzero;stroke:#eee;stroke-opacity:0.18;stroke-width:20.83px;"/></g><g><path d="M3722.44,2548.31c45.325,195.407 112.037,345.97 200.136,451.689" style="fill:none;fill-rule:nonzero;stroke:#eee;stroke-opacity:0.18;stroke-width:20.83px;"/></g><g><path d="M3922.57,3000c-102.024,-29.397 -195.975,-93.78 -281.852,-193.148" style="fill:none;fill-rule:nonzero;stroke:#eee;stroke-opacity:0.18;stroke-width:20.83px;"/></g><g><path d="M3680.91,1866.67c40.977,64.618 80.167,123.325 117.567,176.12" style="fill:none;fill-rule:nonzero;stroke:#eee;stroke-opacity:0.18;stroke-width:20.83px;"/></g><g><path d="M3798.47,2042.79c160.353,226.355 287.831,344.037 382.433,353.046" style="fill:none;fill-rule:nonzero;stroke:#eee;stroke-opacity:0.18;stroke-width:20.83px;"/></g><g><path d="M4180.91,2395.83c-113.793,44.705 -247.654,3.194 -401.582,-124.533" style="fill:none;fill-rule:nonzero;stroke:#eee;stroke-opacity:0.18;stroke-width:20.83px;"/></g><g><path d="M3439.24,1233.33c80.741,65.759 157.99,123.909 231.747,174.452" style="fill:none;fill-rule:nonzero;stroke:#eee;stroke-opacity:0.18;stroke-width:20.83px;"/></g><g><path d="M3670.99,1407.79c172.381,118.126 325.687,194.698 459.92,229.715" style="fill:none;fill-rule:nonzero;stroke:#eee;stroke-opacity:0.18;stroke-width:20.83px;"/></g><g><path d="M4130.91,1637.5c-117.475,43.189 -239.784,56.295 -366.928,39.317" style="fill:none;fill-rule:nonzero;stroke:#eee;stroke-opacity:0.18;stroke-width:20.83px;"/></g><g><path d="M1939.76,3738.51l20.308,290.655" style="fill:none;fill-rule:nonzero;stroke:#eee;stroke-opacity:0.18;stroke-width:20.83px;"/></g><g><path d="M2515.79,3700.97l-101.549,340.698" style="fill:none;fill-rule:nonzero;stroke:#eee;stroke-opacity:0.18;stroke-width:20.83px;"/></g><g><path d="M2189.24,4137.5l500,-191.667" style="fill:none;fill-rule:nonzero;stroke:#eee;stroke-opacity:0.18;stroke-width:20.83px;"/></g><g><path d="M2689.24,3945.83l325,104.167" style="fill:none;fill-rule:nonzero;stroke:#eee;stroke-opacity:0.18;stroke-width:20.83px;"/></g><g><path d="M3014.24,4050l-825,87.5" style="fill:none;fill-rule:nonzero;stroke:#eee;stroke-opacity:0.18;stroke-width:20.83px;"/></g><g><path d="M2189.24,4137.5l-625,-212.5" style="fill:none;fill-rule:nonzero;stroke:#eee;stroke-opacity:0.18;stroke-width:20.83px;"/></g><g><path d="M1564.24,3925l-79.167,141.667" style="fill:none;fill-rule:nonzero;stroke:#eee;stroke-opacity:0.18;stroke-width:20.83px;"/></g><g><path d="M1485.07,4066.67l704.167,70.833" style="fill:none;fill-rule:nonzero;stroke:#eee;stroke-opacity:0.18;stroke-width:20.83px;"/></g><g><path d="M3014.24,4050l245.833,195.833" style="fill:none;fill-rule:nonzero;stroke:#eee;stroke-opacity:0.18;stroke-width:20.83px;"/></g><g><path d="M1485.07,4066.67c-91.666,66.666 -155.555,133.333 -191.666,200" style="fill:none;fill-rule:nonzero;stroke:#eee;stroke-opacity:0.18;stroke-width:20.83px;"/></g><g><path d="M3423.39,2985.57l182.519,264.431" style="fill:none;fill-rule:nonzero;stroke:#eee;stroke-opacity:0.18;stroke-width:20.83px;"/></g><g><path d="M3605.91,3250l-237.5,225" style="fill:none;fill-rule:nonzero;stroke:#eee;stroke-opacity:0.18;stroke-width:20.83px;"/></g><g><path d="M3368.41,3475l-366.782,47.11" style="fill:none;fill-rule:nonzero;stroke:#eee;stroke-opacity:0.18;stroke-width:20.83px;"/></g><g><path d="M3362.58,3107.85l126.657,129.646" style="fill:none;fill-rule:nonzero;stroke:#eee;stroke-opacity:0.18;stroke-width:20.83px;"/></g><g><path d="M3489.24,3237.5l-120.833,158.333" style="fill:none;fill-rule:nonzero;stroke:#eee;stroke-opacity:0.18;stroke-width:20.83px;"/></g><g><path d="M3368.41,3395.83l-225.03,24.967" style="fill:none;fill-rule:nonzero;stroke:#eee;stroke-opacity:0.18;stroke-width:20.83px;"/></g><g><path d="M3310.43,3208.27l23.775,76.921" style="fill:none;fill-rule:nonzero;stroke:#eee;stroke-opacity:0.18;stroke-width:20.83px;"/></g><g><path d="M3334.21,3285.19l34.197,110.642" style="fill:none;fill-rule:nonzero;stroke:#eee;stroke-opacity:0.18;stroke-width:20.83px;"/></g><g><path d="M3334.21,3285.19l155.03,-47.691" style="fill:none;fill-rule:nonzero;stroke:#eee;stroke-opacity:0.18;stroke-width:20.83px;"/></g><g><path d="M1864.24,3391.67c158.333,-38.889 309.722,-34.723 454.167,12.5" style="fill:none;fill-rule:nonzero;stroke:#eee;stroke-opacity:0.18;stroke-width:20.83px;"/></g></g></svg>