<?xml version="1.0" encoding="UTF-8" standalone="no"?><!DOCTYPE svg PUBLIC "-//W3C//DTD SVG 1.1//EN" "http://www.w3.org/Graphics/SVG/1.1/DTD/svg11.dtd"><svg width="100%" height="100%" viewBox="0 0 4167 4167" version="1.1" xmlns="http://www.w3.org/2000/svg" xmlns:xlink="http://www.w3.org/1999/xlink" xml:space="preserve" xmlns:serif="http://www.serif.com/" style="fill-rule:evenodd;clip-rule:evenodd;stroke-linecap:round;stroke-linejoin:round;stroke-miterlimit:1.5;"><path d="M4166.67,1250c-0,-689.894 -560.107,-1250 -1250,-1250l-1666.67,0c-689.894,0 -1250,560.106 -1250,1250l-0,1666.67c-0,689.893 560.106,1250 1250,1250l1666.67,-0c689.893,-0 1250,-560.107 1250,-1250l-0,-1666.67Z" style="fill:#4a5463;"/><g><path d="M890.619,1675.79l-0.964,-0.569c-219.498,-130.899 -14.24,-604.986 -14.24,-604.986c0,0 492.127,-40.995 567.083,210.807c190.502,-76.4 420.717,-123.98 698.809,-123.98c233.76,0 430.492,33.62 596.069,89.698c105.185,-218.446 558.086,-175.596 558.086,-175.596c-0,0 171.727,409.174 20.992,571.291c276.358,339.761 297.412,733.179 297.412,733.179c-0,-0 -163.208,56.344 -277.286,245.576c-157.111,260.613 -711.799,477.582 -1222.89,477.695c-512.163,0.113 -1088.88,-187.459 -1218.24,-430.417c-125.52,-235.752 -342.652,-292.854 -342.652,-292.854c-0,-0 54.741,-368.216 337.818,-699.844Z" style="fill:#fff;stroke:#000;stroke-opacity:0.08;stroke-width:416.67px;"/><g><g><path d="M1064.54,2255.37c0,-31.55 -25.614,-57.164 -57.164,-57.164l-760.709,-0c-31.55,-0 -57.164,25.614 -57.164,57.164c-0,31.55 25.614,57.164 57.164,57.164l760.709,0c31.55,0 57.164,-25.614 57.164,-57.164Z" style="fill:#bababa;"/><path d="M1062.58,2131.59c8.166,-30.474 -9.946,-61.846 -40.421,-70.011l-734.788,-196.886c-30.475,-8.166 -61.846,9.946 -70.012,40.421c-8.166,30.475 9.947,61.846 40.421,70.012l734.789,196.886c30.475,8.165 61.846,-9.947 70.011,-40.422Z" style="fill:#bababa;"/><path d="M187.982,2633.02c7.164,30.726 37.926,49.854 68.652,42.69l740.835,-172.746c30.726,-7.165 49.854,-37.927 42.69,-68.652c-7.165,-30.726 -37.927,-49.854 -68.652,-42.69l-740.836,172.746c-30.725,7.165 -49.854,37.927 -42.689,68.652Z" style="fill:#bababa;"/></g><g><path d="M3125.82,2255.11c0,-31.55 25.615,-57.164 57.165,-57.164l737.131,-0c31.55,-0 57.165,25.614 57.165,57.164c-0,31.55 -25.615,57.164 -57.165,57.164l-737.131,0c-31.55,0 -57.165,-25.614 -57.165,-57.164Z" style="fill:#bababa;"/><path d="M3127.73,2131.33c-7.945,-30.475 10.253,-62.004 40.613,-70.364l712.429,-196.181c30.36,-8.36 61.46,9.594 69.406,40.069c7.945,30.474 -10.253,62.004 -40.613,70.364l-712.429,196.181c-30.36,8.36 -61.46,-9.594 -69.406,-40.069Z" style="fill:#bababa;"/><path d="M3978.76,2632.76c-6.972,30.725 -37.505,49.71 -68.142,42.369l-718.195,-172.105c-30.637,-7.341 -49.85,-38.247 -42.879,-68.973c6.972,-30.725 37.505,-49.71 68.142,-42.368l718.195,172.104c30.637,7.342 49.85,38.247 42.879,68.973Z" style="fill:#bababa;"/></g></g><g><path d="M2203.64,1414.6c-14.508,-18.435 -41.253,-21.624 -59.688,-7.117l-195.097,153.529c-18.436,14.508 -21.625,41.253 -7.117,59.688c14.507,18.436 41.252,21.625 59.688,7.117l195.097,-153.528c18.435,-14.508 21.624,-41.253 7.117,-59.689Z" style="fill:#5683c5;"/><path d="M2220.76,1629.86c-23.961,-30.449 -68.135,-35.716 -98.584,-11.755l-151.564,119.271c-30.449,23.962 -35.716,68.135 -11.755,98.584c23.961,30.448 68.135,35.715 98.584,11.754l151.564,-119.271c30.449,-23.961 35.716,-68.134 11.755,-98.583Z" style="fill:#5683c5;"/></g><path d="M948.948,1669.79c19.097,-29.196 40.847,-58.69 65.611,-87.702l-0.559,-0.33c-127.25,-75.886 -8.255,-350.731 -8.255,-350.731c-0,0 285.303,-23.766 328.758,122.212c12.656,-5.076 25.615,-9.932 38.891,-14.554c1.458,12.251 2.208,24.743 2.208,37.409c0,173.507 -140.866,314.374 -314.373,314.374c-39.543,-0 -77.39,-7.317 -112.281,-20.678Z" style="fill:#ffcc05;"/><path d="M2794.32,1353.73c16.326,4.496 32.164,9.36 47.531,14.565c59.815,-124.223 317.365,-99.856 317.365,-99.856c-0,0 97.655,232.683 11.937,324.874c10.781,13.254 20.879,26.652 30.315,40.084c-38.291,19.559 -81.653,30.594 -127.571,30.594c-155.131,0 -281.078,-125.946 -281.078,-281.077c0,-9.851 0.508,-19.584 1.501,-29.184Z" style="fill:#5683c5;"/><path d="M2959.91,2454.89c63.586,2.86 142.152,98.467 121.845,118.16c-20.308,19.693 -223.383,19.693 -243.691,-0c-20.307,-19.693 58.259,-121.019 121.846,-118.16Z" style="fill:#d3848b;"/><g><g><path d="M1537.74,1837.71c156.217,-0 283.045,158.289 283.045,353.256c0,194.968 -2.149,353.257 -283.045,353.257c-280.896,-0 -283.045,-158.289 -283.045,-353.257c-0,-194.967 126.828,-353.256 283.045,-353.256Z" style="fill:#c1c1c2;"/><clipPath id="_clip1"><path d="M1537.74,1837.71c156.217,-0 283.045,158.289 283.045,353.256c0,194.968 -2.149,353.257 -283.045,353.257c-280.896,-0 -283.045,-158.289 -283.045,-353.257c-0,-194.967 126.828,-353.256 283.045,-353.256Z"/></clipPath><g clip-path="url(#_clip1)"><ellipse cx="1277.77" cy="2062.62" rx="258.581" ry="266.542" style="fill:#757575;"/><ellipse cx="1820.78" cy="2092.53" rx="75.967" ry="98.44" style="fill:#fff;"/></g><path d="M1668.74,2173.06c-0,-72.73 -59.048,-131.778 -131.778,-131.778c-72.73,0 -131.778,59.048 -131.778,131.778l0,83.016c0,72.73 59.048,131.777 131.778,131.777c72.73,0 131.778,-59.047 131.778,-131.777l-0,-83.016Z" style="fill:#5683c5;"/></g><g><path d="M2628.93,1837.53c156.217,0 283.045,158.289 283.045,353.257c0,194.967 2.468,359.642 -283.045,353.256c-285.514,-6.386 -283.045,-158.289 -283.045,-353.256c-0,-194.968 126.828,-353.257 283.045,-353.257Z" style="fill:#c1c1c2;"/><clipPath id="_clip2"><path d="M2628.93,1837.53c156.217,0 283.045,158.289 283.045,353.257c0,194.967 2.468,359.642 -283.045,353.256c-285.514,-6.386 -283.045,-158.289 -283.045,-353.256c-0,-194.968 126.828,-353.257 283.045,-353.257Z"/></clipPath><g clip-path="url(#_clip2)"><ellipse cx="2368.96" cy="2062.44" rx="258.581" ry="266.542" style="fill:#757575;"/><ellipse cx="2911.98" cy="2092.35" rx="75.967" ry="98.44" style="fill:#fff;"/></g><path d="M2751.37,2162.35c0,-66.921 -54.331,-121.251 -121.251,-121.251c-66.921,-0 -121.252,54.33 -121.252,121.251l0,104.068c0,66.921 54.331,121.252 121.252,121.252c66.92,-0 121.251,-54.331 121.251,-121.252l0,-104.068Z" style="fill:#404041;"/></g></g></g></svg>