<?xml version="1.0" encoding="UTF-8"?>
<!-- Generated by Pixelmator Pro 3.6.18 -->
<svg width="1024" height="1024" viewBox="0 0 1024 1024" xmlns="http://www.w3.org/2000/svg" xmlns:xlink="http://www.w3.org/1999/xlink">
    <path id="path1" fill="#393431" fill-rule="evenodd" stroke="none" d="M 0 724 C 0 889.685425 134.314575 1024 300 1024 L 724 1024 C 889.685425 1024 1024 889.685425 1024 724 L 1024 300 C 1024 134.314575 889.685425 0 724 0 L 300 0 C 134.314575 0 0 134.314575 0 300 Z"/>
    <mask id="mask1" maskUnits="userSpaceOnUse" maskContentUnits="userSpaceOnUse" mask-type="alpha">
        <path id="path2" fill="#393431" fill-rule="evenodd" stroke="none" d="M 0 724 C 0 889.685425 134.314575 1024 300 1024 L 724 1024 C 889.685425 1024 1024 889.685425 1024 724 L 1024 300 C 1024 134.314575 889.685425 0 724 0 L 300 0 C 134.314575 0 0 134.314575 0 300 Z"/>
    </mask>
    <g id="g1" mask="url(#mask1)">
        <path id="-" fill="#eeeeee" fill-rule="evenodd" stroke="none" d="M 0 1024 L 1024 1024 L 1024 0 L 0 0 Z"/>
        <text id="text1" xml:space="preserve" x="125" y="779" font-family="Source Han Sans SC" font-size="308" font-weight="1000" fill="#555555">> _</text>
        <path id="path3" fill="#53a6ff" fill-rule="evenodd" stroke="none" d="M 0 311 L 1024 311 L 1024 0 L 0 0 Z"/>
    </g>
    <g id="face2">
        <path id="path4" fill="none" stroke="#c9c9c9" stroke-width="5" stroke-linecap="round" stroke-linejoin="round" visibility="hidden" d="M 751.854553 928.350647 L 615.685913 856.525269 L 574.984802 935.533203 L 833.556213 971.445923 L 751.854553 928.350647 L 707.502869 832.224915 L 615.685913 856.525269 M 574.984802 935.533203 L 510.461487 998.141174 L 431.334045 1256.353271 M 661.175293 1105.519897 L 627.656799 1280.295044 M 945.603821 786.016846 L 949.015442 818.697266 L 1082.550781 837.371826 L 1140.011108 933.139038 L 1235.77832 969.051697 L 1331.545532 1115.09668 L 1331.545532 1265.929932 M 949.015442 818.697266 L 958.053528 904.408875 L 1082.550781 837.371826 M 690.384277 795.114746 L 707.502869 832.224915 M 833.556213 971.445923 L 958.053528 904.408875 M 1140.011108 1172.557007 L 1140.011108 1251.564941 M 1140.011108 933.139038 L 833.556213 971.445923"/>
        <path id="path5" fill="none" stroke="#c9c9c9" stroke-width="5" stroke-linecap="round" stroke-linejoin="round" visibility="hidden" d="M 812.400085 300.188416 L 784.971558 536.07373 C 750.411865 493.224365 722.373535 424.3479 700.857361 329.444885 L 711.828491 501.330872 C 646.792603 477.985962 620.583008 370.130615 633.199768 177.765015 L 602.114502 422.702209 L 539.943237 225.307617 C 528.362305 294.001099 510.319763 364.888672 485.817139 437.971375 C 495.142578 478.870117 508.918488 520.714233 527.142578 563.502197 C 482.342712 506.267944 451.439789 445.651062 434.434601 381.651123 L 455.828217 550.702332 C 417.123718 526.808838 390.456787 491.517456 375.828918 444.828247 L 318.685791 607.388062 C 346.88501 521.033691 346.88501 441.186096 318.685791 367.845276 L 198 409.902405 C 249.184875 398.286926 279.433502 297.877747 280.268616 292.625854 C 288.666992 239.796875 469.526001 -197.568848 870.914551 -112.977905 C 1112.408081 -127.058105 1274.449951 -54.615967 1357.040283 104.347595 C 1439.570068 263.311951 1451.242188 400.515625 1392.057373 515.959473 C 1384.621216 464.150208 1360.85022 413.559875 1320.74292 364.187683 C 1317.756592 452.751709 1288.49939 522.238037 1232.971924 572.645264 L 1232.971924 470.245667 M 912.97168 230.794067 L 795.942688 459.273743 M 1280.514648 378.816345 C 1257.474609 446.230347 1209.931885 504.74408 1137.885986 554.359863 C 1195.059692 480.485046 1214.563965 420.751587 1196.400391 375.159485 C 1192.865479 431.296753 1167.264893 462.991821 1119.600464 470.245667 C 1130.266602 448.05835 1139.287964 424.439758 1146.663452 399.387878 L 1075.7146 197.879211 C 1072.240112 334.717529 1057.002563 431.601746 1030 488.531006 L 982.457275 141.193481 C 978.130188 288.02832 952.529663 405.02594 905.65741 492.187866 L 872.743347 322.130554 M 1146.663452 399.387878 C 1161.840698 347.517395 1169.885864 289.490906 1170.800659 225.307617 M 357.086151 232.622009 C 351.173859 315.517334 357.421722 386.253235 375.829681 444.828247 L 379.029083 435.502075 M 434.435364 381.651123 C 422.122772 335.570984 417.063995 287.723328 419.258179 238.108276 M 479.600708 217.993408 C 466.19101 288.088806 468.263397 361.415039 485.817932 437.971375"/>
        <path id="path6" fill="none" stroke="#c9c9c9" stroke-width="5" stroke-linecap="round" stroke-linejoin="round" visibility="hidden" d="M 405.359711 495.662292 C 385.578796 614.566772 429.830139 699.671631 538.114441 750.976746 C 593.36676 777.166443 665.290222 794.553162 753.885559 803.136963 C 896.851379 806.380005 1002.238159 782.060486 1070.046021 730.176941 C 1137.85144 678.295654 1193.378784 624.596313 1236.628662 569.079712 M 622.228699 598.336914 C 632.512512 627.971924 661.159973 626.752991 708.171692 594.679382 C 739.86676 640.285278 770.95282 645.770813 801.429016 611.136841"/>
        <path id="path7" fill="none" stroke="#c9c9c9" stroke-width="5" stroke-linecap="round" stroke-linejoin="round" visibility="hidden" d="M 1296.146851 483.685242 L 1349.997925 483.685242 C 1369.66626 489.707886 1374.496704 521.220581 1364.48938 578.222778 C 1363.334839 584.829163 1361.97876 591.778076 1360.421265 599.067871 C 1350.018677 647.775024 1324.038208 681.055176 1282.478271 698.908569 C 1264.141479 706.792908 1242.762451 711.669373 1218.341064 713.537231 C 1210.996094 710.867249 1205.250854 705.991516 1201.106812 698.908569 C 1199.196899 695.632568 1197.626953 691.883789 1196.398071 687.662354 C 1191.997437 672.564209 1191.997437 651.413391 1196.398071 624.210938 C 1196.840942 621.465088 1197.328979 618.661011 1197.860718 615.7995 M 1272.649536 526.748291 L 1331.712524 526.748291 C 1336.212891 543.853027 1338.041626 559.471558 1337.19812 573.605225 C 1337.107666 575.162842 1336.98584 576.702026 1336.832642 578.222778 C 1334.117432 604.813843 1321.53064 625.918701 1299.072754 641.537109 C 1290.626221 647.420288 1280.782104 652.525146 1269.54126 656.85144 C 1250.195435 648.371094 1245.928833 627.037231 1256.740723 592.85144 M 1302.18103 526.748291 L 1300.077881 603.82251 L 1337.19812 573.605225 M 1300.077881 603.82251 L 1299.072754 641.537109"/>
    </g>
    <g id="g2">
        <path id="path8" fill="#ff6159" fill-rule="evenodd" stroke="none" d="M 217.513565 183.756775 C 217.513565 151.858582 191.654968 126 159.75679 126 C 127.858597 126 102 151.858582 102 183.756775 C 102 215.654968 127.858597 241.51355 159.75679 241.51355 C 191.654968 241.51355 217.513565 215.654968 217.513565 183.756775 Z"/>
        <path id="path9" fill="#febc2e" fill-rule="evenodd" stroke="none" d="M 364.802704 183.756775 C 364.802704 151.858582 338.944122 126 307.045929 126 C 275.147736 126 249.289154 151.858582 249.289154 183.756775 C 249.289154 215.654968 275.147736 241.51355 307.045929 241.51355 C 338.944122 241.51355 364.802704 215.654968 364.802704 183.756775 Z"/>
        <path id="--2" fill="#62ba46" fill-rule="evenodd" stroke="none" d="M 512 183.756775 C 512 151.858582 486.141418 126 454.243225 126 C 422.345032 126 396.48645 151.858582 396.48645 183.756775 C 396.48645 215.654968 422.345032 241.51355 454.243225 241.51355 C 486.141418 241.51355 512 215.654968 512 183.756775 Z"/>
    </g>
    <path id="path10" fill="#555555" fill-rule="evenodd" stroke="none" d="M 846 663.5 C 846 597.501953 792.498047 544 726.5 544 C 660.501953 544 607 597.501953 607 663.5 C 607 729.498047 660.501953 783 726.5 783 C 792.498047 783 846 729.498047 846 663.5 Z"/>
</svg>
