<?xml version="1.0" encoding="UTF-8" standalone="no"?><!DOCTYPE svg PUBLIC "-//W3C//DTD SVG 1.1//EN" "http://www.w3.org/Graphics/SVG/1.1/DTD/svg11.dtd"><svg width="100%" height="100%" viewBox="0 0 417 417" version="1.1" xmlns="http://www.w3.org/2000/svg" xmlns:xlink="http://www.w3.org/1999/xlink" xml:space="preserve" xmlns:serif="http://www.serif.com/" style="fill-rule:evenodd;clip-rule:evenodd;stroke-linejoin:round;stroke-miterlimit:2;"><path d="M416.667,104.167c-0,-57.491 -46.676,-104.167 -104.167,-104.167l-208.333,0c-57.491,0 -104.167,46.676 -104.167,104.167l-0,208.333c-0,57.491 46.676,104.167 104.167,104.167l208.333,-0c57.491,-0 104.167,-46.676 104.167,-104.167l-0,-208.333Z" style="fill:#393431;"/><path d="M375,125c0,-45.993 -37.34,-83.333 -83.333,-83.333l-166.667,-0c-45.993,-0 -83.333,37.34 -83.333,83.333l-0,166.667c-0,45.993 37.34,83.333 83.333,83.333l166.667,0c45.993,0 83.333,-37.34 83.333,-83.333l0,-166.667Z" style="fill:#413f43;"/><clipPath id="_clip1"><path d="M375,125c0,-45.993 -37.34,-83.333 -83.333,-83.333l-166.667,-0c-45.993,-0 -83.333,37.34 -83.333,83.333l-0,166.667c-0,45.993 37.34,83.333 83.333,83.333l166.667,0c45.993,0 83.333,-37.34 83.333,-83.333l0,-166.667Z"/></clipPath><g clip-path="url(#_clip1)"><path d="M412.5,83.333c0,-29.895 -24.271,-54.166 -54.167,-54.166l-316.666,-0c-29.896,-0 -54.167,24.271 -54.167,54.166c-0,29.896 24.271,54.167 54.167,54.167l316.666,0c29.896,0 54.167,-24.271 54.167,-54.167Z" style="fill:#ab5d5f;"/></g><circle cx="292.774" cy="95.833" r="28.06" style="fill:#ff5d5d;"/></svg>