<?xml version="1.0" encoding="UTF-8"?>
<!-- Generated by Pixelmator Pro 3.6.18 -->
<svg width="1024" height="1024" viewBox="0 0 1024 1024" xmlns="http://www.w3.org/2000/svg" xmlns:xlink="http://www.w3.org/1999/xlink">
    <path id="path1" fill="#393431" fill-rule="evenodd" stroke="none" d="M 0 724 C 0 889.685425 134.314575 1024 300 1024 L 724 1024 C 889.685425 1024 1024 889.685425 1024 724 L 1024 300 C 1024 134.314575 889.685425 0 724 0 L 300 0 C 134.314575 0 0 134.314575 0 300 Z"/>
    <mask id="mask1" maskUnits="userSpaceOnUse" maskContentUnits="userSpaceOnUse" mask-type="alpha">
        <path id="path2" fill="#393431" fill-rule="evenodd" stroke="none" d="M 0 724 C 0 889.685425 134.314575 1024 300 1024 L 724 1024 C 889.685425 1024 1024 889.685425 1024 724 L 1024 300 C 1024 134.314575 889.685425 0 724 0 L 300 0 C 134.314575 0 0 134.314575 0 300 Z"/>
    </mask>
    <g id="g1" mask="url(#mask1)">
        <path id="-" fill="#393431" fill-rule="evenodd" stroke="none" d="M 0 1024 L 1024 1024 L 1024 0 L 0 0 Z"/>
        <text id="text1" xml:space="preserve" x="125" y="779" font-family="Source Han Sans SC" font-size="308" font-weight="1000" fill="#dddddd">> _</text>
        <path id="path3" fill="#a75e5e" fill-rule="evenodd" stroke="none" d="M 0 311 L 1024 311 L 1024 0 L 0 0 Z"/>
    </g>
    <g id="g2">
        <path id="path4" fill="#ff6159" fill-rule="evenodd" stroke="none" d="M 217.513565 183.756775 C 217.513565 151.858582 191.654968 126 159.75679 126 C 127.858597 126 102 151.858582 102 183.756775 C 102 215.654968 127.858597 241.51355 159.75679 241.51355 C 191.654968 241.51355 217.513565 215.654968 217.513565 183.756775 Z"/>
        <path id="path5" fill="#febc2e" fill-rule="evenodd" stroke="none" d="M 364.802704 183.756775 C 364.802704 151.858582 338.944122 126 307.045929 126 C 275.147736 126 249.289154 151.858582 249.289154 183.756775 C 249.289154 215.654968 275.147736 241.51355 307.045929 241.51355 C 338.944122 241.51355 364.802704 215.654968 364.802704 183.756775 Z"/>
        <path id="--2" fill="#62ba46" fill-rule="evenodd" stroke="none" d="M 512 183.756775 C 512 151.858582 486.141418 126 454.243225 126 C 422.345032 126 396.48645 151.858582 396.48645 183.756775 C 396.48645 215.654968 422.345032 241.51355 454.243225 241.51355 C 486.141418 241.51355 512 215.654968 512 183.756775 Z"/>
    </g>
    <path id="path6" fill="#dddddd" fill-rule="evenodd" stroke="none" d="M 846 663.5 C 846 597.501953 792.498047 544 726.5 544 C 660.501953 544 607 597.501953 607 663.5 C 607 729.498047 660.501953 783 726.5 783 C 792.498047 783 846 729.498047 846 663.5 Z"/>
</svg>
